<svg id="Group_63" data-name="Group 63" xmlns="http://www.w3.org/2000/svg" width="70.996" height="64" viewBox="0 0 70.996 64">
  <path id="Path_57" data-name="Path 57" d="M112.914,248.519a32,32,0,1,0,32,32,32,32,0,0,0-32-32m0,2.237a29.763,29.763,0,1,1-29.763,29.763,29.8,29.8,0,0,1,29.763-29.763" transform="translate(-80.914 -248.519)" fill="#3a215b"/>
  <path id="Path_58" data-name="Path 58" d="M150.49,298.379a19.718,19.718,0,1,1-19.718-19.718,19.718,19.718,0,0,1,19.718,19.718" transform="translate(-98.773 -266.379)" fill="#3a215b"/>
  <path id="Path_59" data-name="Path 59" d="M229.975,316.483a8.222,8.222,0,1,1-8.222-8.222,8.222,8.222,0,0,1,8.222,8.222" transform="translate(-159.493 -283.918)" fill="#58afa1"/>
  <path id="Path_60" data-name="Path 60" d="M229.975,316.482a8.222,8.222,0,1,0-8.222,8.222A8.226,8.226,0,0,0,229.975,316.482Z" transform="translate(-159.493 -283.917)" fill="none" stroke="#fff" stroke-width="1.027"/>
  <path id="Path_61" data-name="Path 61" d="M126.3,321.35v1.958h3.107v1.011H126.3v2.463h-1.2v-6.434h4.7v1Z" transform="translate(-107.098 -291.08)" fill="#fff"/>
  <path id="Path_62" data-name="Path 62" d="M139.611,326.741a2.447,2.447,0,0,1-1.379-.4,2.567,2.567,0,0,1-.956-1.14,4.181,4.181,0,0,1-.349-1.774,4.256,4.256,0,0,1,.349-1.783,2.59,2.59,0,0,1,.956-1.13,2.6,2.6,0,0,1,2.758,0,2.525,2.525,0,0,1,.965,1.14,4.182,4.182,0,0,1,.349,1.774,4.253,4.253,0,0,1-.349,1.783,2.671,2.671,0,0,1-.956,1.14,2.568,2.568,0,0,1-1.388.386m0-1.039a1.278,1.278,0,0,0,1.094-.57,3.856,3.856,0,0,0,0-3.4,1.278,1.278,0,0,0-1.094-.57,1.257,1.257,0,0,0-1.075.57,3.776,3.776,0,0,0,0,3.4,1.257,1.257,0,0,0,1.075.57" transform="translate(-114.103 -290.946)" fill="#fff"/>
  <path id="Path_63" data-name="Path 63" d="M154.608,326.741a3.576,3.576,0,0,1-1.756-.432,3.1,3.1,0,0,1-1.232-1.177,3.286,3.286,0,0,1,1.241-4.587,3.571,3.571,0,0,1,1.756-.423,3.67,3.67,0,0,1,1.443.276,2.988,2.988,0,0,1,1.1.8l-.772.726a2.245,2.245,0,0,0-1.719-.754,2.409,2.409,0,0,0-1.186.285,2.1,2.1,0,0,0-.818.809,2.463,2.463,0,0,0,0,2.335,2.075,2.075,0,0,0,.818.8,2.411,2.411,0,0,0,1.186.294,2.253,2.253,0,0,0,1.719-.763l.772.736a2.988,2.988,0,0,1-1.1.8,3.749,3.749,0,0,1-1.452.276" transform="translate(-122.542 -290.946)" fill="#fff"/>
  <path id="Path_64" data-name="Path 64" d="M169.964,326.875a2.8,2.8,0,0,1-2.077-.745,2.941,2.941,0,0,1-.745-2.151v-3.631h1.2v3.585c0,1.26.542,1.894,1.636,1.894s1.627-.634,1.627-1.894v-3.585h1.176v3.631a2.976,2.976,0,0,1-.736,2.151,2.8,2.8,0,0,1-2.077.745" transform="translate(-132.006 -291.08)" fill="#fff"/>
  <path id="Path_65" data-name="Path 65" d="M185.072,326.741a5.073,5.073,0,0,1-1.443-.211,2.975,2.975,0,0,1-1.094-.561l.414-.928a3.155,3.155,0,0,0,.974.505,3.325,3.325,0,0,0,1.149.2,1.935,1.935,0,0,0,1.066-.23.7.7,0,0,0,.359-.607.571.571,0,0,0-.193-.451,1.3,1.3,0,0,0-.506-.285c-.2-.064-.478-.147-.827-.23a9.7,9.7,0,0,1-1.186-.349,1.936,1.936,0,0,1-.782-.542,1.473,1.473,0,0,1-.331-1.011,1.735,1.735,0,0,1,.294-.974,1.983,1.983,0,0,1,.873-.689,3.463,3.463,0,0,1,1.425-.258,4.446,4.446,0,0,1,1.158.147,3.325,3.325,0,0,1,.984.423l-.377.929a3.682,3.682,0,0,0-.883-.377,3.427,3.427,0,0,0-.892-.129,1.881,1.881,0,0,0-1.048.239.735.735,0,0,0-.349.635.562.562,0,0,0,.2.45,1.288,1.288,0,0,0,.5.276c.2.064.478.147.827.23a8.626,8.626,0,0,1,1.177.34,2.056,2.056,0,0,1,.791.551,1.482,1.482,0,0,1,.321.993,1.676,1.676,0,0,1-.285.965,2.008,2.008,0,0,1-.883.689,3.536,3.536,0,0,1-1.434.257" transform="translate(-141.127 -290.946)" fill="#fff"/>
</svg>
